<mxfile host="Electron" agent="Mozilla/5.0 (Windows NT 10.0; Win64; x64) AppleWebKit/537.36 (KHTML, like Gecko) draw.io/24.7.17 Chrome/128.0.6613.36 Electron/32.0.1 Safari/537.36" version="24.7.17">
  <diagram name="Page-1" id="6PX4ic-3kJez7jBH_3UQ">
    <mxGraphModel dx="1050" dy="621" grid="1" gridSize="10" guides="1" tooltips="1" connect="1" arrows="1" fold="1" page="1" pageScale="1" pageWidth="850" pageHeight="1100" math="0" shadow="0">
      <root>
        <mxCell id="0" />
        <mxCell id="1" parent="0" />
        <mxCell id="Bi1BM84XQEMnUndeDPTX-1" value="" style="ellipse;html=1;shape=startState;fillColor=#000000;strokeColor=#ff0000;" vertex="1" parent="1">
          <mxGeometry x="405" y="50" width="30" height="30" as="geometry" />
        </mxCell>
        <mxCell id="Bi1BM84XQEMnUndeDPTX-2" value="" style="edgeStyle=orthogonalEdgeStyle;html=1;verticalAlign=bottom;endArrow=open;endSize=8;strokeColor=#ff0000;rounded=0;" edge="1" source="Bi1BM84XQEMnUndeDPTX-1" parent="1" target="Bi1BM84XQEMnUndeDPTX-3">
          <mxGeometry relative="1" as="geometry">
            <mxPoint x="95" y="250" as="targetPoint" />
          </mxGeometry>
        </mxCell>
        <mxCell id="Bi1BM84XQEMnUndeDPTX-3" value="Open &lt;b&gt;ProVirtualMusic&lt;/b&gt;" style="rounded=1;whiteSpace=wrap;html=1;arcSize=40;fontColor=#000000;fillColor=#ffffc0;strokeColor=#ff0000;" vertex="1" parent="1">
          <mxGeometry x="360" y="130" width="120" height="40" as="geometry" />
        </mxCell>
        <mxCell id="Bi1BM84XQEMnUndeDPTX-4" value="" style="edgeStyle=orthogonalEdgeStyle;html=1;verticalAlign=bottom;endArrow=open;endSize=8;strokeColor=#ff0000;rounded=0;" edge="1" source="Bi1BM84XQEMnUndeDPTX-3" parent="1" target="Bi1BM84XQEMnUndeDPTX-5">
          <mxGeometry relative="1" as="geometry">
            <mxPoint x="120" y="360" as="targetPoint" />
          </mxGeometry>
        </mxCell>
        <mxCell id="Bi1BM84XQEMnUndeDPTX-5" value="Login" style="rounded=1;whiteSpace=wrap;html=1;arcSize=40;fontColor=#000000;fillColor=#ffffc0;strokeColor=#ff0000;" vertex="1" parent="1">
          <mxGeometry x="180" y="250" width="120" height="40" as="geometry" />
        </mxCell>
        <mxCell id="Bi1BM84XQEMnUndeDPTX-6" value="" style="edgeStyle=orthogonalEdgeStyle;html=1;verticalAlign=bottom;endArrow=open;endSize=8;strokeColor=#ff0000;rounded=0;" edge="1" source="Bi1BM84XQEMnUndeDPTX-5" parent="1" target="Bi1BM84XQEMnUndeDPTX-23">
          <mxGeometry relative="1" as="geometry">
            <mxPoint x="515" y="90" as="targetPoint" />
          </mxGeometry>
        </mxCell>
        <mxCell id="Bi1BM84XQEMnUndeDPTX-23" value="Have an account" style="rhombus;whiteSpace=wrap;html=1;fontColor=#000000;fillColor=#ffffc0;strokeColor=#ff0000;" vertex="1" parent="1">
          <mxGeometry x="495" y="230" width="130" height="80" as="geometry" />
        </mxCell>
        <mxCell id="Bi1BM84XQEMnUndeDPTX-24" value="no" style="edgeStyle=orthogonalEdgeStyle;html=1;align=left;verticalAlign=bottom;endArrow=open;endSize=8;strokeColor=#ff0000;rounded=0;" edge="1" parent="1" source="Bi1BM84XQEMnUndeDPTX-23" target="Bi1BM84XQEMnUndeDPTX-42">
          <mxGeometry x="-1" relative="1" as="geometry">
            <mxPoint x="720" y="140" as="targetPoint" />
          </mxGeometry>
        </mxCell>
        <mxCell id="Bi1BM84XQEMnUndeDPTX-25" value="yes" style="edgeStyle=orthogonalEdgeStyle;html=1;align=left;verticalAlign=top;endArrow=open;endSize=8;strokeColor=#ff0000;rounded=0;" edge="1" parent="1" source="Bi1BM84XQEMnUndeDPTX-23" target="Bi1BM84XQEMnUndeDPTX-26">
          <mxGeometry x="-1" relative="1" as="geometry">
            <mxPoint x="580" y="220" as="targetPoint" />
          </mxGeometry>
        </mxCell>
        <mxCell id="Bi1BM84XQEMnUndeDPTX-26" value="Verified?" style="rhombus;whiteSpace=wrap;html=1;fontColor=#000000;fillColor=#ffffc0;strokeColor=#ff0000;" vertex="1" parent="1">
          <mxGeometry x="490" y="425" width="140" height="90" as="geometry" />
        </mxCell>
        <mxCell id="Bi1BM84XQEMnUndeDPTX-27" value="no" style="edgeStyle=orthogonalEdgeStyle;html=1;align=left;verticalAlign=bottom;endArrow=open;endSize=8;strokeColor=#ff0000;rounded=0;" edge="1" source="Bi1BM84XQEMnUndeDPTX-26" parent="1" target="Bi1BM84XQEMnUndeDPTX-44">
          <mxGeometry x="-1" relative="1" as="geometry">
            <mxPoint x="650" y="300" as="targetPoint" />
          </mxGeometry>
        </mxCell>
        <mxCell id="Bi1BM84XQEMnUndeDPTX-28" value="yes" style="edgeStyle=orthogonalEdgeStyle;html=1;align=left;verticalAlign=top;endArrow=open;endSize=8;strokeColor=#ff0000;rounded=0;" edge="1" source="Bi1BM84XQEMnUndeDPTX-26" parent="1" target="Bi1BM84XQEMnUndeDPTX-29">
          <mxGeometry x="-1" relative="1" as="geometry">
            <mxPoint x="410" y="330" as="targetPoint" />
          </mxGeometry>
        </mxCell>
        <mxCell id="Bi1BM84XQEMnUndeDPTX-48" style="edgeStyle=orthogonalEdgeStyle;rounded=0;orthogonalLoop=1;jettySize=auto;html=1;exitX=0.5;exitY=1;exitDx=0;exitDy=0;" edge="1" parent="1" source="Bi1BM84XQEMnUndeDPTX-29" target="Bi1BM84XQEMnUndeDPTX-46">
          <mxGeometry relative="1" as="geometry" />
        </mxCell>
        <mxCell id="Bi1BM84XQEMnUndeDPTX-49" style="edgeStyle=orthogonalEdgeStyle;rounded=0;orthogonalLoop=1;jettySize=auto;html=1;exitX=0.5;exitY=1;exitDx=0;exitDy=0;" edge="1" parent="1" source="Bi1BM84XQEMnUndeDPTX-29" target="Bi1BM84XQEMnUndeDPTX-51">
          <mxGeometry relative="1" as="geometry">
            <mxPoint x="100" y="430" as="targetPoint" />
          </mxGeometry>
        </mxCell>
        <mxCell id="Bi1BM84XQEMnUndeDPTX-50" style="edgeStyle=orthogonalEdgeStyle;rounded=0;orthogonalLoop=1;jettySize=auto;html=1;exitX=0.5;exitY=1;exitDx=0;exitDy=0;" edge="1" parent="1" source="Bi1BM84XQEMnUndeDPTX-29" target="Bi1BM84XQEMnUndeDPTX-47">
          <mxGeometry relative="1" as="geometry" />
        </mxCell>
        <mxCell id="Bi1BM84XQEMnUndeDPTX-29" value="Menu Window" style="rounded=1;whiteSpace=wrap;html=1;arcSize=40;fontColor=#000000;fillColor=#ffffc0;strokeColor=#ff0000;" vertex="1" parent="1">
          <mxGeometry x="200" y="400" width="120" height="40" as="geometry" />
        </mxCell>
        <mxCell id="Bi1BM84XQEMnUndeDPTX-42" value="Register" style="rounded=1;whiteSpace=wrap;html=1;arcSize=40;fontColor=#000000;fillColor=#ffffc0;strokeColor=#ff0000;" vertex="1" parent="1">
          <mxGeometry x="700" y="340" width="120" height="40" as="geometry" />
        </mxCell>
        <mxCell id="Bi1BM84XQEMnUndeDPTX-43" value="" style="edgeStyle=orthogonalEdgeStyle;html=1;verticalAlign=bottom;endArrow=open;endSize=8;strokeColor=#ff0000;rounded=0;entryX=0.5;entryY=0;entryDx=0;entryDy=0;" edge="1" source="Bi1BM84XQEMnUndeDPTX-42" parent="1" target="Bi1BM84XQEMnUndeDPTX-26">
          <mxGeometry relative="1" as="geometry">
            <mxPoint x="780" y="260" as="targetPoint" />
          </mxGeometry>
        </mxCell>
        <mxCell id="Bi1BM84XQEMnUndeDPTX-44" value="Errol arlarm" style="rounded=1;whiteSpace=wrap;html=1;arcSize=40;fontColor=#000000;fillColor=#ffffc0;strokeColor=#ff0000;" vertex="1" parent="1">
          <mxGeometry x="720" y="430" width="120" height="40" as="geometry" />
        </mxCell>
        <mxCell id="Bi1BM84XQEMnUndeDPTX-46" value="Record mode" style="rounded=1;whiteSpace=wrap;html=1;arcSize=40;fontColor=#000000;fillColor=#ffffc0;strokeColor=#ff0000;" vertex="1" parent="1">
          <mxGeometry x="360" y="560" width="120" height="40" as="geometry" />
        </mxCell>
        <mxCell id="Bi1BM84XQEMnUndeDPTX-47" value="Show recorded soundtracks" style="rounded=1;whiteSpace=wrap;html=1;arcSize=40;fontColor=#000000;fillColor=#ffffc0;strokeColor=#ff0000;" vertex="1" parent="1">
          <mxGeometry x="200" y="560" width="120" height="40" as="geometry" />
        </mxCell>
        <mxCell id="Bi1BM84XQEMnUndeDPTX-51" value="Show Instruments list" style="rounded=1;whiteSpace=wrap;html=1;arcSize=40;fontColor=#000000;fillColor=#ffffc0;strokeColor=#ff0000;" vertex="1" parent="1">
          <mxGeometry x="40" y="560" width="120" height="40" as="geometry" />
        </mxCell>
        <mxCell id="Bi1BM84XQEMnUndeDPTX-52" value="" style="edgeStyle=orthogonalEdgeStyle;html=1;verticalAlign=bottom;endArrow=open;endSize=8;strokeColor=#ff0000;rounded=0;" edge="1" source="Bi1BM84XQEMnUndeDPTX-51" parent="1" target="Bi1BM84XQEMnUndeDPTX-64">
          <mxGeometry relative="1" as="geometry">
            <mxPoint x="120" y="600" as="targetPoint" />
          </mxGeometry>
        </mxCell>
        <mxCell id="Bi1BM84XQEMnUndeDPTX-53" value="Start recod" style="rounded=1;whiteSpace=wrap;html=1;arcSize=40;fontColor=#000000;fillColor=#ffffc0;strokeColor=#ff0000;" vertex="1" parent="1">
          <mxGeometry x="460" y="680" width="120" height="40" as="geometry" />
        </mxCell>
        <mxCell id="Bi1BM84XQEMnUndeDPTX-54" value="" style="edgeStyle=orthogonalEdgeStyle;html=1;verticalAlign=bottom;endArrow=open;endSize=8;strokeColor=#ff0000;rounded=0;" edge="1" source="Bi1BM84XQEMnUndeDPTX-53" parent="1" target="Bi1BM84XQEMnUndeDPTX-55">
          <mxGeometry relative="1" as="geometry">
            <mxPoint x="280" y="610" as="targetPoint" />
          </mxGeometry>
        </mxCell>
        <mxCell id="Bi1BM84XQEMnUndeDPTX-55" value="Play music" style="rounded=1;whiteSpace=wrap;html=1;arcSize=40;fontColor=#000000;fillColor=#ffffc0;strokeColor=#ff0000;" vertex="1" parent="1">
          <mxGeometry x="680" y="680" width="120" height="40" as="geometry" />
        </mxCell>
        <mxCell id="Bi1BM84XQEMnUndeDPTX-56" value="" style="edgeStyle=orthogonalEdgeStyle;html=1;verticalAlign=bottom;endArrow=open;endSize=8;strokeColor=#ff0000;rounded=0;" edge="1" source="Bi1BM84XQEMnUndeDPTX-55" parent="1" target="Bi1BM84XQEMnUndeDPTX-57">
          <mxGeometry relative="1" as="geometry">
            <mxPoint x="450" y="630" as="targetPoint" />
          </mxGeometry>
        </mxCell>
        <mxCell id="Bi1BM84XQEMnUndeDPTX-57" value="Stop record" style="rounded=1;whiteSpace=wrap;html=1;arcSize=40;fontColor=#000000;fillColor=#ffffc0;strokeColor=#ff0000;" vertex="1" parent="1">
          <mxGeometry x="680" y="780" width="120" height="40" as="geometry" />
        </mxCell>
        <mxCell id="Bi1BM84XQEMnUndeDPTX-62" value="" style="edgeStyle=orthogonalEdgeStyle;html=1;verticalAlign=bottom;endArrow=open;endSize=8;strokeColor=#ff0000;rounded=0;entryX=0;entryY=0.5;entryDx=0;entryDy=0;" edge="1" parent="1" source="Bi1BM84XQEMnUndeDPTX-46" target="Bi1BM84XQEMnUndeDPTX-53">
          <mxGeometry relative="1" as="geometry">
            <mxPoint x="255" y="570" as="targetPoint" />
            <mxPoint x="190" y="490" as="sourcePoint" />
          </mxGeometry>
        </mxCell>
        <mxCell id="Bi1BM84XQEMnUndeDPTX-63" value="" style="edgeStyle=orthogonalEdgeStyle;html=1;verticalAlign=bottom;endArrow=open;endSize=8;strokeColor=#ff0000;rounded=0;" edge="1" parent="1" source="Bi1BM84XQEMnUndeDPTX-57" target="Bi1BM84XQEMnUndeDPTX-72">
          <mxGeometry relative="1" as="geometry">
            <mxPoint x="830" y="600" as="targetPoint" />
            <mxPoint x="790" y="560" as="sourcePoint" />
          </mxGeometry>
        </mxCell>
        <mxCell id="Bi1BM84XQEMnUndeDPTX-64" value="Select instrument" style="rounded=1;whiteSpace=wrap;html=1;arcSize=40;fontColor=#000000;fillColor=#ffffc0;strokeColor=#ff0000;" vertex="1" parent="1">
          <mxGeometry x="40" y="690" width="120" height="40" as="geometry" />
        </mxCell>
        <mxCell id="Bi1BM84XQEMnUndeDPTX-65" value="" style="edgeStyle=orthogonalEdgeStyle;html=1;verticalAlign=bottom;endArrow=open;endSize=8;strokeColor=#ff0000;rounded=0;" edge="1" source="Bi1BM84XQEMnUndeDPTX-64" parent="1" target="Bi1BM84XQEMnUndeDPTX-66">
          <mxGeometry relative="1" as="geometry">
            <mxPoint x="115" y="750" as="targetPoint" />
          </mxGeometry>
        </mxCell>
        <mxCell id="Bi1BM84XQEMnUndeDPTX-66" value="Enter play window" style="rounded=1;whiteSpace=wrap;html=1;arcSize=40;fontColor=#000000;fillColor=#ffffc0;strokeColor=#ff0000;" vertex="1" parent="1">
          <mxGeometry x="40" y="860" width="120" height="40" as="geometry" />
        </mxCell>
        <mxCell id="Bi1BM84XQEMnUndeDPTX-67" value="" style="edgeStyle=orthogonalEdgeStyle;html=1;verticalAlign=bottom;endArrow=open;endSize=8;strokeColor=#ff0000;rounded=0;" edge="1" source="Bi1BM84XQEMnUndeDPTX-66" parent="1" target="Bi1BM84XQEMnUndeDPTX-72">
          <mxGeometry relative="1" as="geometry">
            <mxPoint x="200" y="780" as="targetPoint" />
          </mxGeometry>
        </mxCell>
        <mxCell id="Bi1BM84XQEMnUndeDPTX-68" value="Select soundtrack" style="rounded=1;whiteSpace=wrap;html=1;arcSize=40;fontColor=#000000;fillColor=#ffffc0;strokeColor=#ff0000;" vertex="1" parent="1">
          <mxGeometry x="200" y="690" width="120" height="40" as="geometry" />
        </mxCell>
        <mxCell id="Bi1BM84XQEMnUndeDPTX-69" value="" style="edgeStyle=orthogonalEdgeStyle;html=1;verticalAlign=bottom;endArrow=open;endSize=8;strokeColor=#ff0000;rounded=0;" edge="1" source="Bi1BM84XQEMnUndeDPTX-68" parent="1" target="Bi1BM84XQEMnUndeDPTX-70">
          <mxGeometry relative="1" as="geometry">
            <mxPoint x="270" y="640" as="targetPoint" />
          </mxGeometry>
        </mxCell>
        <mxCell id="Bi1BM84XQEMnUndeDPTX-70" value="Playback" style="rounded=1;whiteSpace=wrap;html=1;arcSize=40;fontColor=#000000;fillColor=#ffffc0;strokeColor=#ff0000;" vertex="1" parent="1">
          <mxGeometry x="200" y="780" width="120" height="40" as="geometry" />
        </mxCell>
        <mxCell id="Bi1BM84XQEMnUndeDPTX-71" value="" style="edgeStyle=orthogonalEdgeStyle;html=1;verticalAlign=bottom;endArrow=open;endSize=8;strokeColor=#ff0000;rounded=0;entryX=0.513;entryY=0.8;entryDx=0;entryDy=0;entryPerimeter=0;" edge="1" source="Bi1BM84XQEMnUndeDPTX-70" parent="1" target="Bi1BM84XQEMnUndeDPTX-72">
          <mxGeometry relative="1" as="geometry">
            <mxPoint x="290" y="780" as="targetPoint" />
          </mxGeometry>
        </mxCell>
        <mxCell id="Bi1BM84XQEMnUndeDPTX-72" value="" style="ellipse;html=1;shape=endState;fillColor=#000000;strokeColor=#ff0000;" vertex="1" parent="1">
          <mxGeometry x="405" y="980" width="30" height="30" as="geometry" />
        </mxCell>
        <mxCell id="Bi1BM84XQEMnUndeDPTX-73" value="" style="edgeStyle=orthogonalEdgeStyle;html=1;verticalAlign=bottom;endArrow=open;endSize=8;strokeColor=#ff0000;rounded=0;exitX=0.5;exitY=1;exitDx=0;exitDy=0;" edge="1" parent="1" source="Bi1BM84XQEMnUndeDPTX-47" target="Bi1BM84XQEMnUndeDPTX-68">
          <mxGeometry relative="1" as="geometry">
            <mxPoint x="280" y="810" as="targetPoint" />
            <mxPoint x="280" y="740" as="sourcePoint" />
          </mxGeometry>
        </mxCell>
      </root>
    </mxGraphModel>
  </diagram>
</mxfile>
